<mxfile host="app.diagrams.net" modified="2022-05-29T08:09:02.137Z" agent="5.0 (Windows NT 10.0; Win64; x64) AppleWebKit/537.36 (KHTML, like Gecko) Chrome/102.0.5005.61 Safari/537.36" etag="NzOeOIXVbIUaeU4YzVRx" version="18.0.6" type="github">
  <diagram id="C5RBs43oDa-KdzZeNtuy" name="Page-1">
    <mxGraphModel dx="1038" dy="539" grid="1" gridSize="10" guides="1" tooltips="1" connect="1" arrows="1" fold="1" page="1" pageScale="1" pageWidth="827" pageHeight="1169" math="0" shadow="0">
      <root>
        <mxCell id="WIyWlLk6GJQsqaUBKTNV-0" />
        <mxCell id="WIyWlLk6GJQsqaUBKTNV-1" parent="WIyWlLk6GJQsqaUBKTNV-0" />
        <mxCell id="qcJp4AAbtySxRiNVdOmy-3" style="edgeStyle=orthogonalEdgeStyle;rounded=0;orthogonalLoop=1;jettySize=auto;html=1;exitX=0.5;exitY=1;exitDx=0;exitDy=0;entryX=0.5;entryY=0;entryDx=0;entryDy=0;fontFamily=宋体;fontSize=14;" edge="1" parent="WIyWlLk6GJQsqaUBKTNV-1" source="WIyWlLk6GJQsqaUBKTNV-3" target="qcJp4AAbtySxRiNVdOmy-0">
          <mxGeometry relative="1" as="geometry" />
        </mxCell>
        <mxCell id="WIyWlLk6GJQsqaUBKTNV-3" value="接收http请求" style="rounded=1;whiteSpace=wrap;html=1;fontSize=14;glass=0;strokeWidth=1;shadow=0;fontFamily=宋体;" parent="WIyWlLk6GJQsqaUBKTNV-1" vertex="1">
          <mxGeometry x="160" y="80" width="120" height="40" as="geometry" />
        </mxCell>
        <mxCell id="qcJp4AAbtySxRiNVdOmy-2" value="" style="edgeStyle=orthogonalEdgeStyle;rounded=0;orthogonalLoop=1;jettySize=auto;html=1;fontFamily=宋体;fontSize=14;" edge="1" parent="WIyWlLk6GJQsqaUBKTNV-1" source="qcJp4AAbtySxRiNVdOmy-0" target="qcJp4AAbtySxRiNVdOmy-1">
          <mxGeometry relative="1" as="geometry" />
        </mxCell>
        <mxCell id="qcJp4AAbtySxRiNVdOmy-0" value="拆分请求数据" style="rounded=1;whiteSpace=wrap;html=1;fontSize=14;glass=0;strokeWidth=1;shadow=0;fontFamily=宋体;" vertex="1" parent="WIyWlLk6GJQsqaUBKTNV-1">
          <mxGeometry x="160" y="170" width="120" height="40" as="geometry" />
        </mxCell>
        <mxCell id="qcJp4AAbtySxRiNVdOmy-5" value="" style="edgeStyle=orthogonalEdgeStyle;rounded=0;orthogonalLoop=1;jettySize=auto;html=1;fontFamily=宋体;fontSize=14;" edge="1" parent="WIyWlLk6GJQsqaUBKTNV-1" source="qcJp4AAbtySxRiNVdOmy-1">
          <mxGeometry relative="1" as="geometry">
            <mxPoint x="220" y="350" as="targetPoint" />
          </mxGeometry>
        </mxCell>
        <mxCell id="qcJp4AAbtySxRiNVdOmy-1" value="获取下发对象及指令" style="rounded=1;whiteSpace=wrap;html=1;fontSize=14;glass=0;strokeWidth=1;shadow=0;fontFamily=宋体;" vertex="1" parent="WIyWlLk6GJQsqaUBKTNV-1">
          <mxGeometry x="160" y="260" width="120" height="40" as="geometry" />
        </mxCell>
        <mxCell id="qcJp4AAbtySxRiNVdOmy-7" value="" style="edgeStyle=orthogonalEdgeStyle;rounded=0;orthogonalLoop=1;jettySize=auto;html=1;fontFamily=宋体;fontSize=14;" edge="1" parent="WIyWlLk6GJQsqaUBKTNV-1" target="qcJp4AAbtySxRiNVdOmy-6">
          <mxGeometry relative="1" as="geometry">
            <mxPoint x="220" y="400" as="sourcePoint" />
          </mxGeometry>
        </mxCell>
        <mxCell id="qcJp4AAbtySxRiNVdOmy-6" value="向该设备发送指令" style="rounded=1;whiteSpace=wrap;html=1;fontSize=14;glass=0;strokeWidth=1;shadow=0;fontFamily=宋体;" vertex="1" parent="WIyWlLk6GJQsqaUBKTNV-1">
          <mxGeometry x="160" y="450" width="120" height="40" as="geometry" />
        </mxCell>
        <mxCell id="qcJp4AAbtySxRiNVdOmy-11" style="edgeStyle=orthogonalEdgeStyle;rounded=0;orthogonalLoop=1;jettySize=auto;html=1;exitX=1;exitY=0.5;exitDx=0;exitDy=0;entryX=0;entryY=0.5;entryDx=0;entryDy=0;fontFamily=宋体;fontSize=14;" edge="1" parent="WIyWlLk6GJQsqaUBKTNV-1" source="qcJp4AAbtySxRiNVdOmy-8" target="qcJp4AAbtySxRiNVdOmy-10">
          <mxGeometry relative="1" as="geometry" />
        </mxCell>
        <mxCell id="qcJp4AAbtySxRiNVdOmy-8" value="是否存在该设备" style="rhombus;whiteSpace=wrap;html=1;fontFamily=宋体;fontSize=14;" vertex="1" parent="WIyWlLk6GJQsqaUBKTNV-1">
          <mxGeometry x="145" y="350" width="150" height="50" as="geometry" />
        </mxCell>
        <mxCell id="qcJp4AAbtySxRiNVdOmy-9" value="是" style="text;html=1;align=center;verticalAlign=middle;resizable=0;points=[];autosize=1;strokeColor=none;fillColor=none;fontFamily=宋体;fontSize=14;" vertex="1" parent="WIyWlLk6GJQsqaUBKTNV-1">
          <mxGeometry x="225" y="410" width="30" height="20" as="geometry" />
        </mxCell>
        <mxCell id="qcJp4AAbtySxRiNVdOmy-10" value="返回报错" style="rounded=1;whiteSpace=wrap;html=1;fontSize=14;glass=0;strokeWidth=1;shadow=0;fontFamily=宋体;" vertex="1" parent="WIyWlLk6GJQsqaUBKTNV-1">
          <mxGeometry x="330" y="355" width="120" height="40" as="geometry" />
        </mxCell>
      </root>
    </mxGraphModel>
  </diagram>
</mxfile>
